<svg width="24" height="24" viewBox="0 0 24 24" fill="none" xmlns="http://www.w3.org/2000/svg">
<path d="M4 10.5V8C4 6.89543 4.89543 6 6 6H8C8.31476 6 8.61115 5.85181 8.8 5.6L9.7 4.4C9.88885 4.14819 10.1852 4 10.5 4H13.5C13.8148 4 14.1111 4.14819 14.3 4.4L15.2 5.6C15.3889 5.85181 15.6852 6 16 6H18C19.1046 6 20 6.89543 20 8V13M4 15.5V18C4 19.1046 4.89543 20 6 20H13" stroke="white" stroke-width="2" stroke-linecap="round" stroke-linejoin="round"/>
<circle cx="12" cy="12.5" r="3.5" fill="white"/>
<circle cx="18" cy="18" r="1" stroke="white" stroke-width="2" stroke-linecap="round" stroke-linejoin="round"/>
</svg>
