<svg width="17" height="17" viewBox="0 0 17 17" fill="none" xmlns="http://www.w3.org/2000/svg">
<path opacity="0.5" d="M10.9766 11.3359C10.1953 11.3359 9.46094 11.1901 8.77344 10.8984C8.08594 10.6016 7.48177 10.1953 6.96094 9.67969C6.44531 9.15885 6.03906 8.55469 5.74219 7.86719C5.45052 7.17969 5.30469 6.44531 5.30469 5.66406C5.30469 4.88281 5.45052 4.15104 5.74219 3.46875C6.03906 2.78125 6.44531 2.17708 6.96094 1.65625C7.48177 1.13542 8.08594 0.729167 8.77344 0.4375C9.46094 0.145833 10.1953 0 10.9766 0C11.7578 0 12.4896 0.148438 13.1719 0.445312C13.8594 0.736979 14.4609 1.14323 14.9766 1.66406C15.4974 2.17969 15.9036 2.78125 16.1953 3.46875C16.4922 4.15104 16.6406 4.88281 16.6406 5.66406C16.6406 6.45052 16.4948 7.1875 16.2031 7.875C15.9115 8.55729 15.5052 9.15885 14.9844 9.67969C14.4635 10.1953 13.8594 10.6016 13.1719 10.8984C12.4896 11.1901 11.7578 11.3359 10.9766 11.3359ZM14.2344 7.72656C14.1562 7.85156 14.0547 7.91406 13.9297 7.91406C13.8359 7.91406 13.7422 7.8776 13.6484 7.80469C13.5547 7.73177 13.5078 7.63802 13.5078 7.52344C13.5078 7.4349 13.5339 7.35417 13.5859 7.28125C13.7474 7.05208 13.8646 6.79948 13.9375 6.52344C14.0104 6.2474 14.0469 5.96094 14.0469 5.66406C14.0469 5.21094 13.9531 4.78125 13.7656 4.375C13.5781 3.96875 13.3151 3.6224 12.9766 3.33594C12.8724 3.2474 12.8203 3.14323 12.8203 3.02344C12.8203 2.91927 12.8594 2.82552 12.9375 2.74219C13.0208 2.65885 13.112 2.61719 13.2109 2.61719C13.3047 2.61719 13.388 2.65104 13.4609 2.71875C13.8776 3.09375 14.2083 3.53646 14.4531 4.04688C14.7031 4.55208 14.8281 5.09115 14.8281 5.66406C14.8281 6.02865 14.776 6.38802 14.6719 6.74219C14.5729 7.09115 14.4271 7.41927 14.2344 7.72656ZM10.9766 10.3984C11.6328 10.3984 12.2448 10.276 12.8125 10.0312C13.3854 9.78646 13.888 9.44792 14.3203 9.01562C14.7526 8.57812 15.0911 8.07552 15.3359 7.50781C15.5807 6.9349 15.7031 6.32031 15.7031 5.66406C15.7031 5.01302 15.5807 4.40104 15.3359 3.82812C15.0911 3.25521 14.7526 2.7526 14.3203 2.32031C13.888 1.88802 13.3854 1.54948 12.8125 1.30469C12.2396 1.0599 11.6276 0.9375 10.9766 0.9375C10.3203 0.9375 9.70573 1.0599 9.13281 1.30469C8.5651 1.54948 8.0625 1.88802 7.625 2.32031C7.19271 2.7526 6.85417 3.25521 6.60938 3.82812C6.36458 4.40104 6.24219 5.01302 6.24219 5.66406C6.24219 6.32031 6.36458 6.9349 6.60938 7.50781C6.85417 8.07552 7.19271 8.57812 7.625 9.01562C8.0625 9.44792 8.5651 9.78646 9.13281 10.0312C9.70573 10.276 10.3203 10.3984 10.9766 10.3984ZM6.55469 11L5.39844 9.82812L6.61719 8.63281L7.77344 9.82031L6.55469 11ZM1.77344 16.4062C1.48177 16.4062 1.20052 16.3177 0.929688 16.1406C0.658854 15.9688 0.434896 15.7474 0.257812 15.4766C0.0859375 15.2057 0 14.9245 0 14.6328C0 14.2266 0.158854 13.8646 0.476562 13.5469L4.125 9.89844C4.44271 9.58073 4.80208 9.42188 5.20312 9.42188C5.5 9.42188 5.78385 9.50781 6.05469 9.67969C6.32552 9.85156 6.54688 10.0729 6.71875 10.3438C6.89062 10.6094 6.97656 10.888 6.97656 11.1797C6.97656 11.5911 6.81771 11.9557 6.5 12.2734L2.86719 15.9141C2.53906 16.2422 2.17448 16.4062 1.77344 16.4062ZM1.77344 15.4688C1.92448 15.4688 2.07031 15.3984 2.21094 15.2578L5.82812 11.6172C5.96875 11.4766 6.03906 11.3307 6.03906 11.1797C6.03906 11.0599 5.99479 10.9375 5.90625 10.8125C5.81771 10.6875 5.70833 10.5807 5.57812 10.4922C5.44792 10.4036 5.32292 10.3594 5.20312 10.3594C5.05208 10.3594 4.91146 10.4245 4.78125 10.5547L1.14844 14.2031C1.00781 14.3438 0.9375 14.487 0.9375 14.6328C0.9375 14.7526 0.981771 14.8776 1.07031 15.0078C1.15885 15.138 1.26823 15.2474 1.39844 15.3359C1.52865 15.4245 1.65365 15.4688 1.77344 15.4688ZM12.2344 2.67188C12.1458 2.67188 12.0599 2.64844 11.9766 2.60156C11.9349 2.57552 11.888 2.55208 11.8359 2.53125C11.7891 2.50521 11.7422 2.48177 11.6953 2.46094C11.5078 2.38281 11.4141 2.26042 11.4141 2.09375C11.4141 1.96875 11.4531 1.8724 11.5312 1.80469C11.6094 1.73698 11.7005 1.70312 11.8047 1.70312C11.8411 1.70312 11.8958 1.71354 11.9688 1.73438C12.0521 1.75521 12.1276 1.78646 12.1953 1.82812C12.2682 1.86458 12.3359 1.90365 12.3984 1.94531C12.5391 2.03385 12.6094 2.14844 12.6094 2.28906C12.6094 2.38281 12.5755 2.47135 12.5078 2.55469C12.4401 2.63281 12.349 2.67188 12.2344 2.67188Z" fill="white"/>
</svg>
