<svg width="18" height="18" viewBox="0 0 18 18" fill="none" xmlns="http://www.w3.org/2000/svg">
<path opacity="0.5" d="M1 7.5V5C1 3.89543 1.89543 3 3 3H5C5.31476 3 5.61115 2.85181 5.8 2.6L6.7 1.4C6.88885 1.14819 7.18524 1 7.5 1H10.5C10.8148 1 11.1111 1.14819 11.3 1.4L12.2 2.6C12.3889 2.85181 12.6852 3 13 3H15C16.1046 3 17 3.89543 17 5V10M1 12.5V15C1 16.1046 1.89543 17 3 17H10" stroke="white" stroke-width="2" stroke-linecap="round" stroke-linejoin="round"/>
<circle opacity="0.5" cx="9" cy="9.5" r="3.5" fill="white"/>
<circle opacity="0.5" cx="15" cy="15" r="1" stroke="white" stroke-width="2" stroke-linecap="round" stroke-linejoin="round"/>
</svg>
