<svg width="1920" height="299" viewBox="0 0 1920 299" fill="none" xmlns="http://www.w3.org/2000/svg">
<g clip-path="url(#clip0_212_17)">
<mask id="mask0_212_17" style="mask-type:luminance" maskUnits="userSpaceOnUse" x="0" y="0" width="1920" height="299">
<path d="M1920 0H0V299H1920V0Z" fill="white"/>
</mask>
<g mask="url(#mask0_212_17)">
<path d="M1447.06 94.668C1474.48 105.028 1501.89 115.388 1529.32 123.781L1545.68 128.541C1590.45 140.841 1635.23 146.849 1680 138C1760 122.188 1800.76 105.57 1860 56C1884.5 35.5 1920 16 1920 16V368H0V138L40 153.381C42.1363 154.172 44.3867 155.011 46.7451 155.89L47.1054 156.024L47.114 156.027C88.9897 171.639 164.495 199.788 240 199.381C292.469 199.663 344.938 186.157 397.408 172.65L397.411 172.649L397.442 172.641C424.961 165.558 452.48 158.474 480 153.381C560 138 640 138 720 138C800 138 880 138 960 115C989.956 106.387 1019.91 94.5503 1049.87 82.7109L1049.93 82.6865C1099.95 62.9158 1149.98 43.1451 1200 38.3812C1277.21 30.473 1354.43 59.657 1431.64 88.841C1434.43 89.8946 1437.21 90.9481 1440 92C1441.11 92.4172 1442.21 92.8346 1443.32 93.2522L1447.05 94.6634L1447.06 94.668Z" fill="#5B677E"/>
<path d="M0 126.328L50.6458 141.938C101.292 157.842 202.583 188.624 303.875 196.686C405.167 204.748 506.458 188.624 607.75 173.233C709.042 157.842 810.333 141.719 911.625 145.896C1012.92 149.78 1114.21 173.233 1215.5 184.96C1316.79 196.686 1418.08 196.686 1519.37 196.686C1620.67 196.686 1721.96 196.686 1823.25 204.528C1924.54 212.077 2025.83 228.201 2127.12 227.981C2228.42 228.201 2329.71 212.077 2380.35 204.528L2431 196.686V313.95H0V126.328Z" fill="#EBF4F8"/>
</g>
</g>
<defs>
<clipPath id="clip0_212_17">
<rect width="1920" height="299" fill="white"/>
</clipPath>
</defs>
</svg>
