<svg width="115" height="31" viewBox="0 0 115 31" fill="none" xmlns="http://www.w3.org/2000/svg">
<path d="M85.1499 1.15002L113.15 29.15M113.15 1.15002L85.1499 29.15M29.1499 29.15H1.1499M43.1499 5.15002V25.15C43.1499 27.0356 43.1499 27.9785 43.7357 28.5642C44.3215 29.15 45.2643 29.15 47.1499 29.15H67.1499C69.0355 29.15 69.9783 29.15 70.5641 28.5642C71.1499 27.9785 71.1499 27.0356 71.1499 25.15V5.15002C71.1499 3.26441 71.1499 2.3216 70.5641 1.73581C69.9783 1.15002 69.0355 1.15002 67.1499 1.15002H47.1499C45.2643 1.15002 44.3215 1.15002 43.7357 1.73581C43.1499 2.3216 43.1499 3.26441 43.1499 5.15002Z" stroke="white" stroke-width="2.3" stroke-linecap="round" stroke-linejoin="round"/>
</svg>
