<svg width="114" height="30" viewBox="0 0 114 30" fill="none" xmlns="http://www.w3.org/2000/svg">
<path d="M85 1L113 29M113 1L85 29M29 29H1M43 5V25C43 26.8856 43 27.8284 43.5858 28.4142C44.1716 29 45.1144 29 47 29H67C68.8856 29 69.8284 29 70.4142 28.4142C71 27.8284 71 26.8856 71 25V5C71 3.11438 71 2.17157 70.4142 1.58579C69.8284 1 68.8856 1 67 1H47C45.1144 1 44.1716 1 43.5858 1.58579C43 2.17157 43 3.11438 43 5Z" stroke="white" stroke-width="2" stroke-linecap="round" stroke-linejoin="round"/>
</svg>
